# xmcd CD database file
#
# Track frame offsets:
#	150
#	16989
#	34386
#
# Disc length: 681 seconds
#
# Revision: 1
# Processed by: cddbd v1.5.2PL0 Copyright (c) Steve Scherf et al.
# Submitted via: CDex 1.70beta3
#
DISCID=1d02a703
DTITLE=少女時代 - GENIE
DYEAR=2010
DGENRE=Vocal
TTITLE0=GENIE
TTITLE1=GENIE [Korean ver.]
TTITLE2=GENIE [Without main vocal]
EXTD=YEAR: 2010
EXTT0=
EXTT1=
EXTT2=
PLAYORDER=
